<?xml version="1.0" standalone="no"?><!DOCTYPE svg PUBLIC "-//W3C//DTD SVG 1.1//EN" "http://www.w3.org/Graphics/SVG/1.1/DTD/svg11.dtd"><svg t="1627224271982" class="icon" viewBox="0 0 1024 1024" version="1.1" xmlns="http://www.w3.org/2000/svg" p-id="3192" width="44" height="44" xmlns:xlink="http://www.w3.org/1999/xlink"><defs><style type="text/css">@font-face { font-family: feedback-iconfont; src: url("//at.alicdn.com/t/font_1031158_1uhr8ri0pk5.eot?#iefix") format("embedded-opentype"), url("//at.alicdn.com/t/font_1031158_1uhr8ri0pk5.woff2") format("woff2"), url("//at.alicdn.com/t/font_1031158_1uhr8ri0pk5.woff") format("woff"), url("//at.alicdn.com/t/font_1031158_1uhr8ri0pk5.ttf") format("truetype"), url("//at.alicdn.com/t/font_1031158_1uhr8ri0pk5.svg#iconfont") format("svg"); }
</style></defs><path d="M427 202c-17.673 0-32-14.327-32-32 0-17.673 14.327-32 32-32h459c13.66 0 25.321 8.56 29.913 20.607 3.278 8.116 3.234 17.538-0.906 26.025L768.11 516.24a8 8 0 0 1-7.315 4.76h-356.18a8 8 0 0 0-7.022 4.165l-65.005 119a8 8 0 0 0 7.02 11.835H817c17.673 0 32 14.327 32 32 0 17.673-14.327 32-32 32H241.41c-8.837 0-16-7.163-16-16a16 16 0 0 1 2.067-7.867l114.725-203.176a8 8 0 0 0 0.336-7.2l-157.89-353.023a8 8 0 0 0-7.302-4.734H96c-17.673 0-32-14.327-32-32 0-17.673 14.327-32 32-32h105.842a32 32 0 0 1 29.176 18.856L399.57 457h320.795a8 8 0 0 0 7.325-4.784L837.542 202H427z m-83 758c-48.601 0-88-39.399-88-88s39.399-88 88-88 88 39.399 88 88-39.399 88-88 88z m0-60c-15.464 0-28-12.536-28-28s12.536-28 28-28 28 12.536 28 28-12.536 28-28 28z m422 60c-48.601 0-88-39.399-88-88s39.399-88 88-88 88 39.399 88 88-39.399 88-88 88z m0-60c-15.464 0-28-12.536-28-28s12.536-28 28-28 28 12.536 28 28-12.536 28-28 28z" p-id="3193" fill="#333333"></path></svg>